<svg width="19" height="19" viewBox="0 0 19 19" fill="none" xmlns="http://www.w3.org/2000/svg">
<path d="M5.56638 14.9495V16.3838C5.56638 16.5081 5.70925 16.5768 5.80573 16.5007L14.1702 9.96758C14.2413 9.91232 14.2988 9.84155 14.3383 9.76067C14.3779 9.6798 14.3984 9.59096 14.3984 9.50093C14.3984 9.41091 14.3779 9.32207 14.3383 9.24119C14.2988 9.16032 14.2413 9.08955 14.1702 9.03428L5.80573 2.50118C5.70739 2.42511 5.56638 2.49376 5.56638 2.61807V4.05235C5.56638 4.14327 5.60905 4.23048 5.67956 4.28614L12.3593 9.50001L5.67956 14.7157C5.60905 14.7714 5.56638 14.8586 5.56638 14.9495Z" fill="#CBCBCB"/>
</svg>
