<svg width="54" height="54" viewBox="0 0 54 54" fill="none" xmlns="http://www.w3.org/2000/svg">
<path d="M52.3125 27.8438H18.5625V15.1875H50.625V19.4062H52.3125V12.6562C52.3125 11.2607 51.1768 10.125 49.7812 10.125H19.4062C18.0107 10.125 16.875 11.2607 16.875 12.6562V14.3438H11.1738C10.2727 14.3438 9.42469 14.6948 8.78681 15.3326L3.52012 20.5993C2.88225 21.2363 2.53125 22.0843 2.53125 22.9863V25.4922C1.55166 25.8415 0.84375 26.7697 0.84375 27.8682C0.84375 28.9668 1.55166 29.8949 2.53125 30.2442V32.0625C2.53125 32.0667 2.53378 32.0701 2.53378 32.0743C2.53378 32.0785 2.53125 32.0819 2.53125 32.0861V34.6174C2.53125 36.4787 4.04494 37.9924 5.90625 37.9924H8.4375C8.90325 37.9924 9.28125 37.6152 9.28125 37.1486V36.2812H10.8245C10.3832 37.0322 10.125 37.9038 10.125 38.8361C10.125 41.6281 12.3955 43.8986 15.1875 43.8986C17.9795 43.8986 20.25 41.6281 20.25 38.8361C20.25 37.9038 19.9918 37.0322 19.5505 36.2812H28.5432C28.1019 37.0322 27.8438 37.9038 27.8438 38.8361C27.8438 41.6281 30.1143 43.8986 32.9062 43.8986C35.6982 43.8986 37.9688 41.6281 37.9688 38.8361C37.9688 37.9038 37.7106 37.0322 37.2693 36.2812H39.512C39.0707 37.0322 38.8125 37.9038 38.8125 38.8361C38.8125 41.6281 41.083 43.8986 43.875 43.8986C46.667 43.8986 48.9375 41.6281 48.9375 38.8361C48.9375 37.9038 48.6793 37.0322 48.238 36.2812H48.9375C50.3331 36.2812 51.4688 35.1456 51.4688 33.75V32.9062H52.3125C52.7783 32.9062 53.1562 32.5291 53.1562 32.0625V28.6875C53.1562 28.2209 52.7783 27.8438 52.3125 27.8438ZM19.4062 11.8125H49.7812C50.2462 11.8125 50.625 12.1913 50.625 12.6562V13.5H18.5625V12.6562C18.5625 12.1913 18.9413 11.8125 19.4062 11.8125ZM11.1738 16.0312H16.875V28.6875V31.2188H12.8191C13.1752 30.251 14.0974 29.5549 15.1875 29.5549C15.6532 29.5549 16.0312 29.1777 16.0312 28.7111V26.1799H16.0262C16.027 26.1714 16.0312 26.1647 16.0312 26.1562V17.7188C16.0312 17.253 15.6532 16.875 15.1875 16.875H9.63056L9.97987 16.5257C10.2988 16.2068 10.7224 16.0312 11.1738 16.0312ZM7.59375 33.75H4.21875V32.9299H7.59375V33.75ZM4.21875 31.2188V30.3986H5.0625C5.52825 30.3986 5.90625 30.0215 5.90625 29.5549V27H14.3438V27.9526C12.7027 28.2876 11.4126 29.581 11.0675 31.2188H4.21875ZM4.71319 21.7924L7.94306 18.5625H14.3438V25.3125H5.0625V25.3361H4.21875V22.9863C4.21875 22.5349 4.39425 22.1113 4.71319 21.7924ZM3.375 27.0236H4.21875V28.7111H3.375C2.91009 28.7111 2.53125 28.3331 2.53125 27.8674C2.53125 27.4016 2.91009 27.0236 3.375 27.0236ZM5.90625 36.3049C5.27428 36.3049 4.73006 35.9522 4.44066 35.4375H7.59375V36.3049H5.90625ZM15.1875 42.2111C13.3262 42.2111 11.8125 40.6974 11.8125 38.8361C11.8125 36.9748 13.3262 35.4611 15.1875 35.4611C17.0488 35.4611 18.5625 36.9748 18.5625 38.8361C18.5625 40.6974 17.0488 42.2111 15.1875 42.2111ZM32.9062 42.2111C31.0449 42.2111 29.5312 40.6974 29.5312 38.8361C29.5312 36.9748 31.0449 35.4611 32.9062 35.4611C34.7676 35.4611 36.2812 36.9748 36.2812 38.8361C36.2812 40.6974 34.7676 42.2111 32.9062 42.2111ZM43.875 42.2111C42.0137 42.2111 40.5 40.6974 40.5 38.8361C40.5 36.9748 42.0137 35.4611 43.875 35.4611C45.7363 35.4611 47.25 36.9748 47.25 38.8361C47.25 40.6974 45.7363 42.2111 43.875 42.2111ZM49.7812 33.75C49.7812 34.2157 49.4024 34.5938 48.9375 34.5938H46.6282C45.835 34.0774 44.89 33.7736 43.875 33.7736C42.86 33.7736 41.915 34.0774 41.1218 34.5938H35.6594C34.8663 34.0774 33.9213 33.7736 32.9062 33.7736C31.8912 33.7736 30.9462 34.0774 30.1531 34.5938H17.9407C17.1475 34.0774 16.2025 33.7736 15.1875 33.7736C14.1725 33.7736 13.2275 34.0774 12.4343 34.5938H9.28125V32.9062H17.7188H49.7812V33.75ZM51.4688 31.2188H18.5625V29.5312H51.4688V31.2188Z" fill="#D21111"/>
<path d="M15.1875 40.5236C16.1195 40.5236 16.875 39.7681 16.875 38.8361C16.875 37.9041 16.1195 37.1486 15.1875 37.1486C14.2555 37.1486 13.5 37.9041 13.5 38.8361C13.5 39.7681 14.2555 40.5236 15.1875 40.5236Z" fill="#D21111"/>
<path d="M32.9062 40.5236C33.8382 40.5236 34.5938 39.7681 34.5938 38.8361C34.5938 37.9041 33.8382 37.1486 32.9062 37.1486C31.9743 37.1486 31.2188 37.9041 31.2188 38.8361C31.2188 39.7681 31.9743 40.5236 32.9062 40.5236Z" fill="#D21111"/>
<path d="M43.875 40.5236C44.807 40.5236 45.5625 39.7681 45.5625 38.8361C45.5625 37.9041 44.807 37.1486 43.875 37.1486C42.943 37.1486 42.1875 37.9041 42.1875 38.8361C42.1875 39.7681 42.943 40.5236 43.875 40.5236Z" fill="#D21111"/>
<path d="M7.59375 27.8674H10.9688V29.5549H7.59375V27.8674Z" fill="#D21111"/>
<path d="M24.4688 19.4062V17.7188H21.0938C20.628 17.7188 20.25 18.0968 20.25 18.5625V26.1562H21.9375V22.7812H24.4688V21.0938H21.9375V19.4062H24.4688Z" fill="#D21111"/>
<path d="M30.375 20.25C30.375 18.8544 29.2393 17.7188 27.8438 17.7188H26.1562C25.6905 17.7188 25.3125 18.0968 25.3125 18.5625V26.1562H27V22.9517L28.6875 24.0764V26.1562H30.375V23.625C30.375 23.3432 30.2341 23.0799 29.9995 22.923L29.1921 22.3847C29.9 21.9358 30.375 21.1494 30.375 20.25ZM27 19.4062H27.8438C28.3087 19.4062 28.6875 19.7851 28.6875 20.25C28.6875 20.7149 28.3087 21.0938 27.8438 21.0938H27V19.4062Z" fill="#D21111"/>
<path d="M35.4375 19.4062V17.7188H32.0625C31.5968 17.7188 31.2188 18.0968 31.2188 18.5625V25.3125C31.2188 25.7782 31.5968 26.1562 32.0625 26.1562H35.4375V24.4688H32.9062V22.7812H35.4375V21.0938H32.9062V19.4062H35.4375Z" fill="#D21111"/>
<path d="M40.5 19.4062V17.7188H37.125C36.6593 17.7188 36.2812 18.0968 36.2812 18.5625V25.3125C36.2812 25.7782 36.6593 26.1562 37.125 26.1562H40.5V24.4688H37.9688V22.7812H40.5V21.0938H37.9688V19.4062H40.5Z" fill="#D21111"/>
<path d="M42.1875 24.4688H52.3125V26.1562H42.1875V24.4688Z" fill="#D21111"/>
<path d="M42.1875 21.9375H50.625V23.625H42.1875V21.9375Z" fill="#D21111"/>
<path d="M42.1875 19.4062H48.9375V21.0938H42.1875V19.4062Z" fill="#D21111"/>
</svg>
