<svg width="66" height="66" viewBox="0 0 66 66" fill="none" xmlns="http://www.w3.org/2000/svg">
<path d="M63.9375 34.0312H22.6875V18.5625H61.875V23.7188H63.9375V15.4688C63.9375 13.7631 62.5494 12.375 60.8438 12.375H23.7188C22.0131 12.375 20.625 13.7631 20.625 15.4688V17.5312H13.6568C12.5555 17.5312 11.5191 17.9603 10.7394 18.7399L4.30237 25.1769C3.52275 25.9555 3.09375 26.9919 3.09375 28.0943V31.1572C1.89647 31.5841 1.03125 32.7185 1.03125 34.0612C1.03125 35.4038 1.89647 36.5382 3.09375 36.9652V39.1875C3.09375 39.1927 3.09684 39.1968 3.09684 39.2019C3.09684 39.2071 3.09375 39.2112 3.09375 39.2164V42.3101C3.09375 44.5851 4.94381 46.4351 7.21875 46.4351H10.3125C10.8818 46.4351 11.3438 45.9742 11.3438 45.4039V44.3438H13.2299C12.6906 45.2616 12.375 46.3268 12.375 47.4664C12.375 50.8788 15.1501 53.6539 18.5625 53.6539C21.9749 53.6539 24.75 50.8788 24.75 47.4664C24.75 46.3268 24.4344 45.2616 23.8951 44.3438H34.8862C34.3468 45.2616 34.0312 46.3268 34.0312 47.4664C34.0312 50.8788 36.8063 53.6539 40.2188 53.6539C43.6312 53.6539 46.4062 50.8788 46.4062 47.4664C46.4062 46.3268 46.0907 45.2616 45.5513 44.3438H48.2924C47.7531 45.2616 47.4375 46.3268 47.4375 47.4664C47.4375 50.8788 50.2126 53.6539 53.625 53.6539C57.0374 53.6539 59.8125 50.8788 59.8125 47.4664C59.8125 46.3268 59.4969 45.2616 58.9576 44.3438H59.8125C61.5182 44.3438 62.9062 42.9557 62.9062 41.25V40.2188H63.9375C64.5067 40.2188 64.9688 39.7578 64.9688 39.1875V35.0625C64.9688 34.4922 64.5067 34.0312 63.9375 34.0312ZM23.7188 14.4375H60.8438C61.412 14.4375 61.875 14.9005 61.875 15.4688V16.5H22.6875V15.4688C22.6875 14.9005 23.1505 14.4375 23.7188 14.4375ZM13.6568 19.5938H20.625V35.0625V38.1562H15.6678C16.103 36.9734 17.2301 36.1226 18.5625 36.1226C19.1318 36.1226 19.5938 35.6617 19.5938 35.0914V31.9976H19.5876C19.5886 31.9873 19.5938 31.9791 19.5938 31.9688V21.6562C19.5938 21.087 19.1318 20.625 18.5625 20.625H11.7707L12.1976 20.1981C12.5874 19.8083 13.1051 19.5938 13.6568 19.5938ZM9.28125 41.25H5.15625V40.2476H9.28125V41.25ZM5.15625 38.1562V37.1539H6.1875C6.75675 37.1539 7.21875 36.6929 7.21875 36.1226V33H17.5312V34.1643C15.5255 34.5737 13.9487 36.1546 13.5269 38.1562H5.15625ZM5.76056 26.6351L9.70819 22.6875H17.5312V30.9375H6.1875V30.9664H5.15625V28.0943C5.15625 27.5426 5.37075 27.0249 5.76056 26.6351ZM4.125 33.0289H5.15625V35.0914H4.125C3.55678 35.0914 3.09375 34.6294 3.09375 34.0601C3.09375 33.4909 3.55678 33.0289 4.125 33.0289ZM7.21875 44.3726C6.44634 44.3726 5.78119 43.9416 5.42747 43.3125H9.28125V44.3726H7.21875ZM18.5625 51.5914C16.2876 51.5914 14.4375 49.7413 14.4375 47.4664C14.4375 45.1914 16.2876 43.3414 18.5625 43.3414C20.8374 43.3414 22.6875 45.1914 22.6875 47.4664C22.6875 49.7413 20.8374 51.5914 18.5625 51.5914ZM40.2188 51.5914C37.9438 51.5914 36.0938 49.7413 36.0938 47.4664C36.0938 45.1914 37.9438 43.3414 40.2188 43.3414C42.4937 43.3414 44.3438 45.1914 44.3438 47.4664C44.3438 49.7413 42.4937 51.5914 40.2188 51.5914ZM53.625 51.5914C51.3501 51.5914 49.5 49.7413 49.5 47.4664C49.5 45.1914 51.3501 43.3414 53.625 43.3414C55.8999 43.3414 57.75 45.1914 57.75 47.4664C57.75 49.7413 55.8999 51.5914 53.625 51.5914ZM60.8438 41.25C60.8438 41.8193 60.3807 42.2812 59.8125 42.2812H56.99C56.0206 41.6501 54.8656 41.2789 53.625 41.2789C52.3844 41.2789 51.2294 41.6501 50.26 42.2812H43.5837C42.6143 41.6501 41.4593 41.2789 40.2188 41.2789C38.9782 41.2789 37.8232 41.6501 36.8538 42.2812H21.9275C20.9581 41.6501 19.8031 41.2789 18.5625 41.2789C17.3219 41.2789 16.1669 41.6501 15.1975 42.2812H11.3438V40.2188H21.6562H60.8438V41.25ZM62.9062 38.1562H22.6875V36.0938H62.9062V38.1562Z" fill="white"/>
<path d="M18.5625 49.5289C19.7016 49.5289 20.625 48.6055 20.625 47.4664C20.625 46.3273 19.7016 45.4039 18.5625 45.4039C17.4234 45.4039 16.5 46.3273 16.5 47.4664C16.5 48.6055 17.4234 49.5289 18.5625 49.5289Z" fill="white"/>
<path d="M40.2188 49.5289C41.3578 49.5289 42.2812 48.6055 42.2812 47.4664C42.2812 46.3273 41.3578 45.4039 40.2188 45.4039C39.0797 45.4039 38.1562 46.3273 38.1562 47.4664C38.1562 48.6055 39.0797 49.5289 40.2188 49.5289Z" fill="white"/>
<path d="M53.625 49.5289C54.7641 49.5289 55.6875 48.6055 55.6875 47.4664C55.6875 46.3273 54.7641 45.4039 53.625 45.4039C52.4859 45.4039 51.5625 46.3273 51.5625 47.4664C51.5625 48.6055 52.4859 49.5289 53.625 49.5289Z" fill="white"/>
<path d="M9.28125 34.0601H13.4062V36.1226H9.28125V34.0601Z" fill="white"/>
<path d="M29.9062 23.7188V21.6562H25.7812C25.212 21.6562 24.75 22.1183 24.75 22.6875V31.9688H26.8125V27.8438H29.9062V25.7812H26.8125V23.7188H29.9062Z" fill="white"/>
<path d="M37.125 24.75C37.125 23.0443 35.7369 21.6562 34.0312 21.6562H31.9688C31.3995 21.6562 30.9375 22.1183 30.9375 22.6875V31.9688H33V28.0521L35.0625 29.4267V31.9688H37.125V28.875C37.125 28.5306 36.9528 28.2088 36.6661 28.017L35.6792 27.3591C36.5444 26.8104 37.125 25.8493 37.125 24.75ZM33 23.7188H34.0312C34.5995 23.7188 35.0625 24.1818 35.0625 24.75C35.0625 25.3182 34.5995 25.7812 34.0312 25.7812H33V23.7188Z" fill="white"/>
<path d="M43.3125 23.7188V21.6562H39.1875C38.6183 21.6562 38.1562 22.1183 38.1562 22.6875V30.9375C38.1562 31.5068 38.6183 31.9688 39.1875 31.9688H43.3125V29.9062H40.2188V27.8438H43.3125V25.7812H40.2188V23.7188H43.3125Z" fill="white"/>
<path d="M49.5 23.7188V21.6562H45.375C44.8058 21.6562 44.3438 22.1183 44.3438 22.6875V30.9375C44.3438 31.5068 44.8058 31.9688 45.375 31.9688H49.5V29.9062H46.4062V27.8438H49.5V25.7812H46.4062V23.7188H49.5Z" fill="white"/>
<path d="M51.5625 29.9062H63.9375V31.9688H51.5625V29.9062Z" fill="white"/>
<path d="M51.5625 26.8125H61.875V28.875H51.5625V26.8125Z" fill="white"/>
<path d="M51.5625 23.7188H59.8125V25.7812H51.5625V23.7188Z" fill="white"/>
</svg>
