<svg width="49" height="70" viewBox="0 0 49 70" fill="none" xmlns="http://www.w3.org/2000/svg">
<path fill-rule="evenodd" clip-rule="evenodd" d="M48.6461 27.7413L48.6577 27.7361H49V27.8901L48.6461 27.7413ZM49 27.8901V52.5115H48.7842L38.2892 60.0696V38.8821H34.7785C34.5709 38.8821 34.3922 38.8879 34.2424 38.8996C34.0925 38.9112 33.9541 38.9404 33.8273 38.987C33.712 39.0336 33.6025 39.1094 33.4987 39.2144C33.4065 39.3193 33.3142 39.4592 33.222 39.6341L25.8201 53.6424C25.6241 54.0155 25.4396 54.4061 25.2667 54.8141C25.0938 55.2222 24.9266 55.6361 24.7652 56.0558C24.6038 55.6477 24.4366 55.2455 24.2636 54.8491C24.1022 54.441 23.9235 54.0505 23.7275 53.6774L16.2565 39.6341C16.1642 39.4592 16.0662 39.3193 15.9625 39.2144C15.8587 39.1094 15.7434 39.0336 15.6166 38.987C15.5013 38.9404 15.3687 38.9112 15.2188 38.8996C15.0689 38.8879 14.8902 38.8821 14.6827 38.8821H11.172V60.4262L0.153732 52.5115H0V27.7361L24.577 38.573L48.3248 27.8859L49 27.8901ZM24.5 70L15.2707 63.3704V47.8362C15.2707 47.5214 15.2592 47.1833 15.2361 46.8219C15.2246 46.4488 15.1958 46.0699 15.1496 45.6851L22.8109 60.0782C22.9839 60.4046 23.2087 60.6611 23.4854 60.8477C23.7621 61.0226 24.0849 61.11 24.4539 61.11H25.0938C25.4627 61.11 25.7855 61.0226 26.0622 60.8477C26.3389 60.6611 26.5638 60.4046 26.7367 60.0782L34.2942 45.7376C34.2596 46.1107 34.2308 46.4779 34.2078 46.8394C34.1962 47.2008 34.1905 47.5331 34.1905 47.8362V63.0213L24.5 70Z" fill="white"/>
<path d="M0 24.4491L24.4491 12.5L48.8982 24.4491L24.4491 35L0 24.4491Z" fill="#D21111"/>
</svg>
