<svg width="48" height="48" viewBox="0 0 48 48" fill="none" xmlns="http://www.w3.org/2000/svg">
<path d="M23.7113 28.125H24C27.071 28.131 30.0201 26.9241 32.2057 24.7667C34.3913 22.6093 35.6364 19.6761 35.6702 16.6052C35.704 13.5344 34.5237 10.5745 32.3862 8.36954C30.2486 6.16457 27.3268 4.89297 24.2564 4.83143C21.186 4.76988 18.2155 5.92337 15.9913 8.04092C13.7671 10.1585 12.4692 13.0687 12.3799 16.1384C12.2906 19.2081 13.4172 22.1889 15.5146 24.4321C17.6119 26.6753 20.5103 27.9995 23.5791 28.1166C23.5861 28.1174 23.5931 28.1187 23.6003 28.1194C23.6372 28.123 23.6742 28.125 23.7113 28.125ZM14.625 16.5C14.625 14.6458 15.1749 12.8332 16.205 11.2915C17.2351 9.74982 18.6993 8.5482 20.4124 7.83863C22.1254 7.12906 24.0104 6.9434 25.829 7.30514C27.6476 7.66688 29.318 8.55976 30.6292 9.87088C31.9403 11.182 32.8332 12.8525 33.1949 14.671C33.5566 16.4896 33.371 18.3746 32.6614 20.0877C31.9518 21.8007 30.7502 23.2649 29.2085 24.295C27.6668 25.3252 25.8542 25.875 24 25.875C21.5145 25.8722 19.1315 24.8836 17.374 23.126C15.6164 21.3685 14.6278 18.9855 14.625 16.5Z" fill="white"/>
<path d="M41.948 36.3408L34.4105 28.8033C36.2011 27.2921 37.6402 25.4082 38.6273 23.2831C39.6143 21.158 40.1254 18.8431 40.125 16.5C40.125 7.60866 32.8913 0.375 24 0.375C15.1087 0.375 7.875 7.60866 7.875 16.5C7.875 23.4138 12.2491 29.3244 18.375 31.6125V46.5C18.3469 47.3708 19.4151 47.9422 20.124 47.436L24 44.8521L27.876 47.436C28.5861 47.9422 29.6525 47.3704 29.625 46.5V39.9273L33.9938 44.2955C34.5933 44.9319 35.748 44.5791 35.8925 43.7206L36.8056 39.1527L41.3736 38.2394C42.2326 38.0959 42.5833 36.9369 41.948 36.3408ZM10.125 16.5C10.125 8.84934 16.3493 2.625 24 2.625C31.6507 2.625 37.875 8.84934 37.875 16.5C37.875 24.1507 31.6507 30.375 24 30.375C16.3493 30.375 10.125 24.1507 10.125 16.5ZM24.624 42.564C24.4392 42.4408 24.2221 42.3751 24 42.3751C23.7779 42.3751 23.5608 42.4408 23.376 42.564L20.625 44.3979V32.2688C22.8499 32.744 25.1501 32.744 27.375 32.2688V44.3981L24.624 42.564ZM35.6285 37.0934C35.4106 37.1369 35.2106 37.244 35.0535 37.4011C34.8964 37.5582 34.7894 37.7582 34.7458 37.9761L34.0977 41.2179L29.625 36.7452V31.6125C30.6558 31.2273 31.6443 30.7372 32.575 30.15L38.8704 36.4455L35.6285 37.0934Z" fill="white"/>
<path d="M26.9644 22.2173C27.7471 22.6574 28.7692 21.9162 28.5925 21.0344L28.0449 17.7396L30.4247 15.3958C31.0855 14.7864 30.6956 13.5864 29.8027 13.4819L26.4999 12.9845L25.0062 9.99694C24.6304 9.18009 23.3696 9.18028 22.9938 9.99694L21.5001 12.9844L18.1972 13.4818C17.3042 13.5867 16.9147 14.786 17.5753 15.3957L19.9551 17.7395L19.4075 21.0343C19.2313 21.9161 20.2512 22.6571 21.0356 22.2172L24 20.6784L26.9644 22.2173ZM21.9956 19.1837L22.2701 17.5323C22.2997 17.3543 22.286 17.1718 22.2303 17.0002C22.1745 16.8287 22.0783 16.673 21.9498 16.5464L20.7572 15.3716L22.4126 15.1223C22.5911 15.0954 22.7604 15.026 22.9064 14.9199C23.0524 14.8139 23.1707 14.6743 23.2514 14.5129L24 13.0156L24.7486 14.513C24.8293 14.6744 24.9476 14.814 25.0936 14.92C25.2396 15.0261 25.4089 15.0955 25.5874 15.1223L27.2428 15.3717L26.05 16.5469C25.9215 16.6735 25.8253 16.8291 25.7695 17.0007C25.7138 17.1723 25.7001 17.3548 25.7297 17.5328L26.0042 19.1842L24.5183 18.4125C24.3582 18.3294 24.1804 18.286 24 18.286C23.8196 18.286 23.6418 18.3294 23.4817 18.4125L21.9956 19.1837Z" fill="white"/>
</svg>
