<svg width="17" height="17" viewBox="0 0 17 17" fill="none" xmlns="http://www.w3.org/2000/svg">
<path d="M16.5869 14.9337L13.0089 11.3551C13.8785 10.1454 14.3567 8.6999 14.3567 7.17833C14.3567 5.26173 13.6105 3.45924 12.2534 2.10329C10.8992 0.747913 9.09551 0 7.17774 0C5.26056 0 3.45749 0.746157 2.10212 2.10329C0.746743 3.45807 0 5.26114 0 7.17833C0 9.09551 0.746157 10.898 2.10212 12.2545C3.45749 13.6099 5.25997 14.3578 7.17774 14.3578C8.69873 14.3578 10.1431 13.882 11.3539 13.0101L14.9319 16.5887C15.1613 16.8175 15.4598 16.9316 15.7594 16.9316C16.0596 16.9316 16.3587 16.8175 16.5869 16.5887C17.044 16.131 17.044 15.3907 16.5869 14.9337ZM3.75771 10.5989C2.84359 9.68483 2.34089 8.46933 2.34089 7.17774C2.34089 5.88616 2.84359 4.67182 3.75771 3.75771C4.67124 2.84359 5.88557 2.3403 7.17774 2.3403C8.46991 2.3403 9.68483 2.84359 10.5984 3.75771C11.5125 4.67182 12.0158 5.88674 12.0158 7.17833C12.0158 8.46991 11.5131 9.68483 10.5984 10.5995C9.68425 11.5136 8.4705 12.0158 7.17774 12.0158C5.88499 12.0158 4.67007 11.5125 3.75771 10.5989Z" fill="white"/>
</svg>
